<svg xmlns="http://www.w3.org/2000/svg" width="200" aria-label="Mentimeter Logo" viewBox="0 0 5663.44 679.01"><path fill="#FFB9D0" d="M67.06 663h465.38L201.01 0H67.06v663z"/><path fill="#196CFF" d="M602.86 0v133.95H468.91V267.9H334.96V663h401.85V0H602.86z"/><path fill="#FF80AB" d="M67.06 267.9V663h401.79c-3.62-218.84-182.12-395.1-401.79-395.1Z"/><path fill="#FF403D" d="M67.06 468.82V662.9h200.8c-3.61-107.79-92.12-194.08-200.8-194.08Z"/><path d="M0 662.97h803.87v13.41H0zM1797.7 0v669.45h-105.2V58.34l-155.88 611.11h-203.71L1178 58.34v611.11h-105.21V0h203.7l159.71 629.28L1595.91 0ZM2329.46 438l-382.54 55.47c22 55.47 74.6 92.76 137.72 92.76 64.07 0 113.8-34.42 137.71-87l92.77 31.56C2277.82 616.85 2190.79 679 2083.68 679 1943.1 679 1836 570.94 1836 434.18c0-137.71 107.11-244.82 247.69-244.82s247.68 105.2 245.77 248.64Zm-115.72-65c-21-64.07-66-91.81-130.06-91.81-81.29 0-137.71 54.51-147.28 130.06ZM2794.27 362.46v307H2692.9V386.37c0-74.6-30.61-105.2-95.64-105.2-74.59 0-128.15 47.82-128.15 131v257.28h-101.37V198.92h101.37v67.9c30.61-51.64 87-77.46 151.11-77.46 100.41 0 174.05 60.25 174.05 173.1ZM2992.25 198.92h146.32v82.25h-146.32v247.7c0 41.12 26.79 59.29 63.13 59.29 24.86 0 47.81-5.74 70.77-17.22v89.9c-21 9.56-58.34 17.21-85.12 17.21-101.38 0-150.15-47.81-150.15-149.18v-247.7H2823v-82.25h67.9V83.2l101.35-77.46ZM3171.11 79.38a62.16 62.16 0 1 1 62.16 62.16 62 62 0 0 1-62.16-62.16Zm13.39 119.54h101.37v470.53H3184.5ZM4014.6 356.72v312.73h-101.38V369.16c0-62.17-28.68-88-80.33-88s-104.24 41.13-104.24 115.72v272.57h-101.37V369.16c0-62.17-28.7-88-80.34-88S3442.7 322.3 3442.7 397.84v271.61h-101.37V198.92h101.37V263c27.73-48.78 75.55-73.64 131-73.64 59.3 0 111.9 26.78 134.85 85.11 32.51-52.59 84.16-85.11 151.1-85.11 87.05 0 154.95 58.34 154.95 167.36ZM4546.36 438l-382.54 55.47c22 55.47 74.6 92.76 137.72 92.76 64.07 0 113.8-34.42 137.71-87l92.75 31.55C4494.72 616.85 4407.69 679 4300.58 679c-140.58 0-247.69-108.07-247.69-244.83 0-137.71 107.11-244.82 247.69-244.82s247.7 105.21 245.78 248.65Zm-115.72-65c-21-64.07-66-91.81-130.06-91.81-81.29 0-137.71 54.51-147.28 130.06ZM4716.62 198.92h146.32v82.25h-146.32v247.7c0 41.12 26.78 59.29 63.12 59.29 24.86 0 47.82-5.74 70.77-17.22v89.9c-21 9.56-58.34 17.21-85.12 17.21-101.37 0-150.15-47.81-150.15-149.18v-247.7h-67.9v-82.25h67.9V83.2l101.38-77.46ZM5365 438l-382.54 55.47c22 55.47 74.6 92.76 137.71 92.76 64.08 0 113.81-34.42 137.72-87l92.76 31.56C5313.39 616.85 5226.36 679 5119.25 679c-140.58 0-247.69-108.07-247.69-244.83 0-137.71 107.11-244.82 247.69-244.82S5367 294.56 5365 438Zm-115.72-65c-21-64.07-66-91.81-130.06-91.81-81.29 0-137.72 54.51-147.28 130.06ZM5663.44 191.28V284a229.09 229.09 0 0 0-35.39-2.87c-74.6 0-123.37 49.73-123.37 135.8v252.52h-101.37V198.92h99.46v70.78c22-48.78 70.77-80.34 132-80.34 12.4 0 23.88.95 28.67 1.92Z"/></svg>